inDegrees=yes
name=ik_S53_A11_T01
DataType=double
version=3
OpenSimVersion=4.3-2021-08-27-4bc7ad9
endheader
time	pelvis_tilt	pelvis_list	pelvis_rotation	pelvis_tx	pelvis_ty	pelvis_tz	hip_flexion_r	hip_adduction_r	hip_rotation_r	knee_angle_r	knee_angle_r_beta	ankle_angle_r	subtalar_angle_r	mtp_angle_r	hip_flexion_l	hip_adduction_l	hip_rotation_l	knee_angle_l	knee_angle_l_beta	ankle_angle_l	subtalar_angle_l	mtp_angle_l	lumbar_extension	lumbar_bending	lumbar_rotation	arm_flex_r	arm_add_r	arm_rot_r	elbow_flex_r	pro_sup_r	wrist_flex_r	wrist_dev_r	arm_flex_l	arm_add_l	arm_rot_l	elbow_flex_l	pro_sup_l	wrist_flex_l	wrist_dev_l
5.99999999999996	-1.411589463423766	-1.587153479728018	38.11575719342704	0	0.9399999999999999	0	25.11809671276537	-8.525268485747469	-7.587093355926013	26.92088652139656	0.4698581073541329	0	0	0	25.11809671276537	-8.525268485747469	-7.587093355926013	26.92088652139656	0.4698581073541329	0	0	0	-1.411885190800513	-0.7605527993112455	14.09156549584054	8.834857854980983	-1.455256198651239	-2.680554530797182	2.742712481436651	109.9988308005918	0	0	7.939127377731225	-2.368489636525042	-8.010691279224577	5.659452552823135	110.7988344905932	0	0
6.01999999999996	-1.415555176964999	-1.545503292189913	38.13257299518842	0	0.9399999999999999	0	25.12294028770096	-8.526433489184013	-7.588318888693452	26.92612957651224	0.469949615928765	0	0	0	25.12294028770096	-8.526433489184013	-7.588318888693452	26.92612957651224	0.469949615928765	0	0	0	-1.391577755259674	-0.7211662523590193	13.98139625415378	9.307881859620711	-1.497622265563816	-2.091933376302843	2.810316644783285	109.8523186794062	0	0	7.910148228167313	-2.318361964000546	-8.160170048450201	5.70331945632577	110.8279964682553	0	0
6.039999999999959	-1.380741925321213	-1.477353147776727	38.09577397069905	0	0.9399999999999999	0	25.12859016345706	-8.527785661765025	-7.589744285150516	26.9322652805898	0.4700567041668465	0	0	0	25.12859016345706	-8.527785661765025	-7.589744285150516	26.9322652805898	0.4700567041668465	0	0	0	-1.322685120677274	-0.6881786549234635	13.95202973584369	9.169649387934919	-1.540614758568649	-1.989037576616004	3.31937685412582	109.8626526743268	0	4.402221490531381e-36	7.753674780691371	-2.296839704597545	-8.235669301608906	5.697821645883642	110.8721850420223	0	4.402221490531381e-36
6.059999999999959	-1.354388330841851	-1.438041874979855	38.1740424873209	0	0.9399999999999999	0	25.13720174242016	-8.529859351663303	-7.591925249527361	26.94156853489277	0.4702190765855837	0	0	0	25.13720174242016	-8.529859351663303	-7.591925249527361	26.94156853489277	0.4702190765855837	0	0	0	-1.279697876908606	-0.6704663110039195	13.84036609965664	9.689537282511843	-1.49854747163616	-1.141837468357954	3.523149534411004	108.7467235187171	0	0	7.748396481532146	-2.288715859434109	-8.220859434870869	5.666310180490734	110.8991168102341	0	0
6.079999999999958	-1.325006863713614	-1.418578364479417	38.1958470106743	0	0.9399999999999999	0	25.14609843787428	-8.531993001135167	-7.594173101866954	26.95120471574788	0.4703872596688229	0	0	0	25.14609843787428	-8.531993001135167	-7.594173101866954	26.95120471574788	0.4703872596688229	0	0	0	-1.245626046497381	-0.6713720998368353	13.78703201585912	10.00864211036315	-1.480260986063692	-0.6850086392611296	4.045442403342193	107.6478555870374	0	0	7.704664917423603	-2.30721556229557	-8.190415445018582	5.671941479569365	110.9010877317708	0	0
6.099999999999958	-1.323190420483076	-1.414581154223866	38.1871534008639	0	0.9399999999999999	0	25.15775281367388	-8.534783906857998	-7.597115602823077	26.96383145183411	0.470607637787308	0	0	0	25.15775281367388	-8.534783906857998	-7.597115602823077	26.96383145183411	0.470607637787308	0	0	0	-1.242357831296872	-0.6687744281630829	13.79547929541879	10.47092209319159	-1.534896826490199	-0.2420378513816979	5.887445212182961	105.3068610268712	0	0	7.751363093552733	-2.322686463386685	-8.191610405711105	5.652693185442189	110.9297129469627	0	0
6.119999999999957	-1.286995309873229	-1.380660142230928	38.20852518350914	0	0.9399999999999999	0	25.16561113933017	-8.536664622595998	-7.599099296859979	26.97234231236796	0.4707561803258017	0	0	0	25.16561113933017	-8.536664622595998	-7.599099296859979	26.97234231236796	0.4707561803258017	0	0	0	-1.193260953802668	-0.6639370292453726	13.77468767674838	10.95758956477746	-1.657197866594121	0.1388317097889669	6.849270135106137	103.7640516069568	0	0	7.728376174755125	-2.323845856188029	-8.220565592755449	5.667868974700934	110.9381738229633	0	0
6.139999999999957	-1.249813049432712	-1.339920189889211	38.21863830399271	0	0.9399999999999999	0	25.17589185960811	-8.539127523872358	-7.601696450626648	26.98346003432102	0.4709502211792039	0	0	0	25.17589185960811	-8.539127523872358	-7.601696450626648	26.98346003432102	0.4709502211792039	0	0	0	-1.139309567691823	-0.653894649113119	13.75302126527221	11.49403869447412	-1.905990183819303	0.5346909664924306	8.071767822395735	102.0209551174234	0	0	7.653708005624549	-2.342023132108157	-8.281536085968682	5.671086414470991	110.9278863725533	0	0
6.159999999999957	-1.242017824085767	-1.323080044601878	38.25557171596775	0	0.9399999999999999	0	25.18308800341702	-8.540847840401822	-7.603512277463839	26.99124972186543	0.4710861768745555	0	0	0	25.18308800341702	-8.540847840401822	-7.603512277463839	26.99124972186543	0.4710861768745555	0	0	0	-1.123410055441423	-0.6439130867524544	13.70950979699174	12.25468218294625	-2.273580543063163	0.834178271027098	7.479800042404273	101.7330477477167	0	0	7.658370622672752	-2.317295483322297	-8.310779402161094	5.701436759436829	110.8791734065978	0	0
6.179999999999956	-1.228164130491797	-1.322951090228377	38.20415463077945	0	0.9399999999999999	0	25.19502456915728	-8.543705205549845	-7.606527274432572	27.004146322764	0.4713112650225512	0	0	0	25.19502456915728	-8.543705205549845	-7.606527274432572	27.004146322764	0.4713112650225512	0	0	0	-1.112446773293731	-0.6535086996191581	13.72836920348919	13.16771268195075	-2.677316894230844	1.185672340466274	8.686155949197055	99.85481469536433	0	0	7.665801689038337	-2.34580553582947	-8.335907118251297	5.691671810794078	110.8580640809064	0	0
